<svg xmlns="http://www.w3.org/2000/svg" viewBox="0 0 48 48" fill="none">
  <rect width="48" height="48" rx="10" fill="#6b8a5c"/>
  <path d="M10 24L24 12L38 24" stroke="#ffffff" stroke-width="3" stroke-linecap="round" stroke-linejoin="round"/>
  <path d="M13 21V34C13 34.9 13.7 35.6 14.6 35.6H33.4C34.3 35.6 35 34.9 35 34V21" stroke="#ffffff" stroke-width="3" stroke-linecap="round" stroke-linejoin="round"/>
  <path d="M20.5 28.8c0-1.5 1.2-2.7 2.7-2.6.8 0 1.5.4 1.8 1.1.3-.6 1-1.1 1.8-1.1 1.5-.1 2.7 1.1 2.7 2.6 0 2-3 4.1-4.5 4.9-1.5-.8-4.5-2.9-4.5-4.9z" fill="#ffffff"/>
</svg>
